# Blender v3.0.0 OBJ File: 'L7 P3 terrain ideas.blend'
# www.blender.org
o Obst_08_10_08_Cube.004
v 3.999999 -3.000000 -4.000000
v 3.999999 5.000000 -4.000000
v 4.000000 -3.000000 3.999999
v 4.000000 5.000000 3.999999
v -0.800001 -3.000000 -4.000000
v -0.800001 5.000000 -4.000000
v -0.800000 -3.000000 4.000000
v -0.800000 5.000000 4.000000
v 1.600000 7.000000 -4.000000
v 1.600001 7.000000 4.000000
v -0.800001 -3.000000 -3.000000
v -0.800001 5.000000 -3.000000
v -4.000000 -3.000000 -2.999999
v -0.800000 5.000000 3.000000
v -4.000000 2.300000 -2.999999
v -4.000000 0.600000 3.000001
v -4.000000 2.300000 3.000001
v -0.800000 4.600000 -2.700000
v -0.800000 4.600000 3.000000
v -3.716115 2.168092 3.000000
v -3.716115 0.602859 3.000000
v -3.716115 2.168092 -2.700000
v -3.716115 -2.997141 -2.700000
v -0.800000 -3.000000 -2.700000
v -0.675761 1.800000 1.852295
v -0.675761 2.000000 1.852295
v -0.675761 1.800000 2.052295
v -0.675761 2.000000 2.052295
v -3.724238 1.800000 1.852296
v -3.724238 2.000000 1.852296
v -3.724238 1.800000 2.052295
v -3.724238 2.000000 2.052295
v -3.919797 1.987460 2.034948
v -3.791239 1.834251 2.034948
v -3.919797 1.987460 1.834949
v -3.791239 1.834251 1.834949
v -0.768005 4.632127 2.034948
v -0.639447 4.478918 2.034948
v -0.768005 4.632127 1.834948
v -0.639447 4.478918 1.834948
v -2.424424 3.534945 2.026275
v -2.552981 3.381735 2.026275
v -2.424424 3.534945 1.826274
v -2.552981 3.381735 1.826275
v -0.486670 1.908976 2.026274
v -0.615228 1.755767 2.026274
v -0.486670 1.908976 1.826274
v -0.615228 1.755767 1.826274
v -3.999999 0.600000 3.899165
v -3.716114 0.602859 3.615280
v -3.999999 -3.000000 3.899165
v -3.716114 -2.997141 3.615280
v -0.658056 0.600000 3.899165
v -0.658056 0.602859 3.615280
v -0.658056 -3.000000 3.899165
v -0.658056 -2.997141 3.615280
v 4.000000 0.200000 1.000000
v 4.000000 2.200000 1.000000
v 4.000000 2.200000 3.000000
v 4.000000 0.200000 3.000000
v 3.700000 0.300000 3.000000
v 3.700000 0.300000 1.000000
v 3.700000 2.200000 1.000000
v 3.700000 2.200000 3.000000
vt 0.948056 0.545602
vt 1.026181 0.545602
vt 1.026181 0.557320
vt 0.948056 0.557320
vt 0.206877 0.276784
vt 0.206877 0.589284
vt 0.019377 0.589284
vt 0.019377 0.276784
vt -0.293123 0.589284
vt -0.293123 0.276784
vt -0.480623 0.589284
vt -0.480623 0.276784
vt -0.386873 0.667409
vt 0.113127 0.667409
vt 0.584550 0.412768
vt 0.584550 0.479174
vt 0.350175 0.479174
vt 0.350175 0.272143
vt 0.854140 0.442326
vt 0.854140 0.590649
vt 0.631484 0.590649
vt 0.631484 0.442326
vt 0.225175 0.584642
vt 0.225175 0.272143
vt 1.135453 0.268398
vt 1.249364 0.268287
vt 1.249364 0.565162
vt 1.135453 0.470165
vt 1.290673 0.347311
vt 1.290673 0.510861
vt 1.279583 0.505708
vt 1.278731 0.357388
vt 1.123350 0.551316
vt 1.056943 0.551316
vt 1.057055 0.540227
vt 1.118197 0.540227
vt 0.912797 0.470165
vt 0.912797 0.409023
vt 0.619673 0.272143
vt 0.619673 0.412768
vt 1.112259 0.505700
vt 1.123348 0.516790
vt 0.992803 0.516790
vt 0.992803 0.505700
vt 1.112260 0.481665
vt 1.123350 0.481666
vt 0.888763 0.409023
vt 0.888763 0.268399
vt 0.769307 0.409023
vt 0.769307 0.268399
vt 0.750218 0.272143
vt 0.750218 0.412768
vt -0.675935 0.479909
vt -0.675935 0.401784
vt -0.793123 0.589284
vt -0.754060 0.479909
vt -0.793122 0.276784
vt -0.754060 0.401784
vt 1.026181 0.545602
vt 0.948056 0.545602
vt 0.948056 0.533249
vt 1.026181 0.533249
vt 1.045225 0.516790
vt 1.123350 0.516790
vt 1.119443 0.528508
vt 1.045225 0.528508
vt 1.123350 0.540227
vt 1.045225 0.540227
vt 1.045225 0.528508
vt 1.119443 0.528508
vt 0.420531 0.944533
vt 0.108031 0.944533
vt 0.108031 0.822497
vt 0.420531 0.822497
vt 0.754908 0.945979
vt 0.442409 0.945979
vt 0.442408 0.823944
vt 0.754908 0.823944
vt 0.767014 0.781309
vt 1.001390 0.781309
vt 1.001390 0.944859
vt 0.767014 0.944859
vt 0.044292 0.811675
vt 0.052105 0.811675
vt 0.052105 0.930756
vt 0.044292 0.930756
vt 0.036479 0.930756
vt 0.036479 0.811675
vt 0.059917 0.811675
vt 0.059917 0.930756
vt 0.082639 0.794288
vt 0.082639 0.955006
vt 0.074826 0.955006
vt 0.074826 0.794288
vt 0.090451 0.955006
vt 0.090451 0.794288
vt 0.098264 0.794288
vt 0.098264 0.955006
vt 0.020854 0.811675
vt 0.020854 0.910486
vt 0.013042 0.910486
vt 0.013042 0.811675
vt 0.028667 0.910486
vt 0.028667 0.811675
vt 0.036479 0.811675
vt 0.036479 0.910486
vt 0.155340 0.096340
vt 0.155340 0.022122
vt 0.233465 0.022122
vt 0.233465 0.096340
vn 0.0000 -1.0000 0.0000
vn 0.0000 0.0000 1.0000
vn -1.0000 0.0000 0.0000
vn -0.0000 0.0000 -1.0000
vn 0.6405 -0.7680 -0.0000
vn 1.0000 0.0000 -0.0000
vn 0.0000 0.9999 0.0101
vn -0.0101 0.9999 0.0000
vn 0.3162 0.9487 0.0000
vn -0.6402 0.7682 0.0000
vn 0.6402 0.7682 -0.0000
vn -0.6449 0.7643 0.0000
vn 0.0000 1.0000 0.0000
vn -0.6428 0.7660 0.0000
vn 0.6428 -0.7660 0.0000
vn 0.6428 0.7660 0.0000
vn -0.6428 -0.7660 0.0000
s off
f 58/1/1 59/2/1 64/3/1 63/4/1
f 3/5/2 4/6/2 8/7/2 7/8/2
f 7/8/3 8/7/3 6/9/3 5/10/3
f 5/10/4 6/9/4 2/11/4 1/12/4
f 2/11/4 6/9/4 9/13/4
f 8/7/2 4/6/2 10/14/2
f 16/15/3 17/16/3 15/17/3 13/18/3
f 19/19/5 20/20/5 22/21/5 18/22/5
f 12/23/4 11/24/4 13/18/4 15/17/4
f 23/25/2 24/26/2 18/27/2 22/28/2
f 14/29/2 17/30/2 20/31/2 19/32/2
f 17/33/2 16/34/2 21/35/2 20/36/2
f 20/37/6 21/38/6 23/25/6 22/28/6
f 16/15/3 13/18/3 51/39/3 49/40/3
f 50/41/7 49/42/7 53/43/7 54/44/7
f 21/45/8 16/46/8 49/42/8 50/41/8
f 23/25/6 21/38/6 50/47/6 52/48/6
f 52/48/4 50/47/4 54/49/4 56/50/4
f 49/40/2 51/39/2 55/51/2 53/52/2
f 1/12/6 2/11/6 58/53/6 57/54/6
f 2/11/6 4/55/6 59/56/6 58/53/6
f 4/55/6 3/57/6 60/58/6 59/56/6
f 3/57/6 1/12/6 57/54/6 60/58/6
f 60/59/9 57/60/9 62/61/9 61/62/9
f 59/63/4 60/64/4 61/65/4 64/66/4
f 57/67/2 58/68/2 63/69/2 62/70/2
f 6/71/10 8/72/10 10/73/10 9/74/10
f 4/75/11 2/76/11 9/77/11 10/78/11
f 14/79/12 12/80/12 15/81/12 17/82/12
f 27/83/2 28/84/2 32/85/2 31/86/2
f 27/83/1 31/86/1 29/87/1 25/88/1
f 32/85/13 28/84/13 26/89/13 30/90/13
f 33/91/14 37/92/14 39/93/14 35/94/14
f 38/95/15 34/96/15 36/97/15 40/98/15
f 38/95/2 37/92/2 33/91/2 34/96/2
f 41/99/16 45/100/16 47/101/16 43/102/16
f 46/103/17 42/104/17 44/105/17 48/106/17
f 46/103/2 45/100/2 41/99/2 42/104/2
f 62/107/6 63/108/6 64/109/6 61/110/6
