# Blender v3.0.0 OBJ File: 'L7 P3 terrain ideas.blend'
# www.blender.org
o Obst_10_17_06_Cube.008
v 5.000000 -3.000000 3.000000
v 5.000000 3.000000 3.000000
v -5.000000 -3.000000 3.000000
v -5.000000 2.200000 0.575001
v 5.000000 -3.000000 -3.000000
v 5.000000 3.000000 -3.000000
v -4.700000 2.200000 0.575001
v -5.000000 -3.000000 -3.000000
v -5.000000 2.200000 -0.474999
v -5.000000 8.000000 0.000000
v -5.000000 8.000000 -3.000000
v 2.000000 5.000000 0.000000
v 2.000000 3.000000 -3.000000
v 2.000000 8.000000 0.000000
v 2.000000 8.000000 -3.000000
v -5.000000 10.000000 -1.500000
v 2.000000 10.000000 -1.500000
v -2.000000 5.500000 -0.300000
v -1.000000 5.500000 -0.300000
v -1.000000 7.700000 -0.300000
v -2.000000 7.700000 -0.300000
v -2.000000 7.700000 0.000000
v -1.000000 7.700000 0.000000
v -1.000000 5.500000 0.000000
v -2.000000 5.500000 0.000000
v -2.000000 7.600000 -3.000000
v -1.000000 7.600000 -3.000000
v -1.000000 5.500001 -3.000000
v -2.000000 5.500001 -3.000000
v -2.000000 7.600000 -2.700000
v -1.000000 7.600000 -2.700000
v -1.000000 5.500001 -2.700000
v -2.000000 5.500001 -2.700000
v -5.000000 3.000000 3.000000
v -5.000000 5.000000 0.000000
v -5.000000 0.200000 0.575001
v -5.000000 5.000000 -3.000000
v -5.000000 0.200000 -0.474999
v -4.700000 2.200000 -0.474999
v -4.700000 0.300000 0.575001
v -4.700000 0.300000 -0.474999
vt 0.227450 0.472891
vt 0.158724 0.472891
vt 0.158724 0.463519
vt 0.227450 0.463519
vt 0.500000 0.125173
vt 0.500000 0.312609
vt 0.312565 0.312609
vt 0.312564 0.125174
vt 0.191525 0.483114
vt 0.158724 0.483114
vt 0.158724 0.473235
vt 0.191525 0.473235
vt 0.812392 0.375086
vt 0.906110 0.375086
vt 0.906110 0.468804
vt 0.812392 0.468804
vt 0.500002 0.468803
vt 0.281330 0.468804
vt 0.375046 0.459432
vt 0.406285 0.459432
vt 0.500001 0.375087
vt 0.593718 0.312608
vt 0.593719 0.468803
vt 0.129099 0.453493
vt 0.097860 0.453493
vt 0.097860 0.444121
vt 0.129099 0.444121
vt 0.812392 0.125172
vt 0.546861 0.531281
vt 0.859251 0.531282
vt 0.097515 0.453493
vt 0.066276 0.453493
vt 0.066276 0.444121
vt 0.097515 0.444121
vt 0.000172 0.125174
vt 0.000173 0.312610
vt 0.184054 0.372576
vt 0.184054 0.441302
vt 0.174683 0.441302
vt 0.174683 0.372576
vt 0.232825 0.328502
vt 0.232825 0.359741
vt 0.223453 0.359741
vt 0.223453 0.328502
vt 0.406285 0.390706
vt 0.281329 0.375088
vt 0.375046 0.390707
vt 0.687435 0.456308
vt 0.718674 0.456308
vt 0.687435 0.390706
vt 0.718674 0.390706
vt 0.129444 0.444121
vt 0.160683 0.444121
vt 0.160683 0.453493
vt 0.129444 0.453493
vt 0.200024 0.453803
vt 0.200024 0.388201
vt 0.209396 0.388201
vt 0.209396 0.453803
vt 0.219112 0.388201
vt 0.219112 0.453803
vt 0.209740 0.453803
vt 0.209740 0.388201
vt 0.924073 0.287616
vt 0.924073 0.225138
vt 0.999828 0.125172
vt 0.999828 0.312608
vt 0.891272 0.225138
vt 0.891272 0.287616
vt 0.224671 0.482607
vt 0.191870 0.482607
vt 0.191870 0.473235
vt 0.224671 0.473235
vt 0.238545 0.388201
vt 0.238545 0.450679
vt 0.229173 0.447555
vt 0.229173 0.388201
vt 0.228828 0.388201
vt 0.228828 0.450679
vt 0.219457 0.450679
vt 0.219457 0.391325
vt 0.423957 0.806885
vt 0.611390 0.806107
vt 0.518141 0.919129
vt 0.983098 0.906827
vt 0.888913 0.794583
vt 0.982630 0.794194
vt 0.544501 0.090751
vt 0.544501 0.031396
vt 0.577302 0.031396
vt 0.577303 0.090751
vt 0.088584 0.795492
vt 0.400976 0.795492
vt 0.307258 0.908127
vt 0.088584 0.908127
vt 0.628012 0.854497
vt 0.846686 0.854497
vt 0.846686 0.932595
vt 0.628012 0.932595
vt 0.628012 0.776055
vt 0.846686 0.776055
vt 0.846686 0.854153
vt 0.628012 0.854153
vt 0.442761 0.030934
vt 0.474000 0.030934
vt 0.474000 0.096536
vt 0.442761 0.096536
vt 0.489636 0.024363
vt 0.520875 0.024363
vt 0.520875 0.093089
vt 0.489636 0.093089
vn 1.0000 0.0000 0.0000
vn -0.3162 0.9487 0.0000
vn -1.0000 0.0000 0.0000
vn 0.0000 0.0000 1.0000
vn 0.0000 -1.0000 0.0000
vn 0.0000 0.0000 -1.0000
vn 0.0000 1.0000 0.0000
vn 0.5547 0.8321 0.0000
vn 0.0000 0.8321 -0.5547
vn 0.0000 0.8321 0.5547
vn 0.0000 0.6000 0.8000
vn 0.0000 0.6000 -0.8000
s off
f 19/1/1 20/2/1 23/3/1 24/4/1
f 5/5/1 6/6/1 2/7/1 1/8/1
f 38/9/2 36/10/2 40/11/2 41/12/2
f 37/13/3 35/14/3 10/15/3 11/16/3
f 14/17/4 10/18/4 22/19/4 23/20/4
f 14/17/1 12/21/1 13/22/1 15/23/1
f 26/24/5 27/25/5 31/26/5 30/27/5
f 5/5/6 13/22/6 6/6/6
f 37/13/6 13/22/6 5/5/6 8/28/6
f 14/17/1 15/23/1 17/29/1
f 11/16/3 10/15/3 16/30/3
f 18/31/5 19/32/5 24/33/5 25/34/5
f 3/35/4 1/8/4 2/7/4 34/36/4
f 21/37/3 18/38/3 25/39/3 22/40/3
f 21/41/5 20/42/5 23/43/5 22/44/5
f 14/17/4 23/20/4 24/45/4 12/21/4
f 35/46/4 25/47/4 22/19/4 10/18/4
f 12/21/4 24/45/4 25/47/4 35/46/4
f 11/16/6 15/23/6 27/48/6 26/49/6
f 15/23/6 13/22/6 28/50/6 27/48/6
f 13/22/6 37/13/6 29/51/6 28/50/6
f 37/13/6 11/16/6 26/49/6 29/51/6
f 28/52/7 29/53/7 33/54/7 32/55/7
f 29/56/1 26/57/1 30/58/1 33/59/1
f 27/60/3 28/61/3 32/62/3 31/63/3
f 4/64/3 36/65/3 3/66/3 34/67/3
f 4/64/3 34/67/3 35/14/3
f 38/68/3 9/69/3 37/13/3 8/28/3
f 9/69/3 4/64/3 35/14/3 37/13/3
f 36/65/3 38/68/3 8/28/3 3/66/3
f 4/70/5 9/71/5 39/72/5 7/73/5
f 9/74/4 38/75/4 41/76/4 39/77/4
f 36/78/6 4/79/6 7/80/6 40/81/6
f 2/82/8 6/83/8 12/84/8
f 12/85/9 6/86/9 13/87/9
f 40/88/3 7/89/3 39/90/3 41/91/3
f 34/92/10 2/93/10 12/94/10 35/95/10
f 10/96/11 14/97/11 17/98/11 16/99/11
f 15/100/12 11/101/12 16/102/12 17/103/12
f 30/104/6 31/105/6 32/106/6 33/107/6
f 19/108/6 18/109/6 21/110/6 20/111/6
